<?xml version="1.0" encoding="iso-8859-1"?>
<!-- Generator: Adobe Illustrator 19.1.0, SVG Export Plug-In . SVG Version: 6.00 Build 0)  -->
<svg version="1.1" id="Capa_1" xmlns="http://www.w3.org/2000/svg" xmlns:xlink="http://www.w3.org/1999/xlink" x="0px" y="0px"
	 viewBox="0 0 512 512" style="enable-background:new 0 0 512 512;" xml:space="preserve">
<g>
	<g>
		<path style="fill:#FF4F19;" d="M336.945,140l14.211-28.422c1.242-2.477,1.109-5.422-0.352-7.781S346.773,100,344,100h-88
			c-4.422,0-8,3.578-8,8v64c0,4.422,3.578,8,8,8h88c2.773,0,5.344-1.438,6.805-3.797s1.594-5.305,0.352-7.781L336.945,140z"/>
	</g>
	<g>
		<g>
			<path style="fill:#7E5C62;" d="M256,228c-4.422,0-8-3.578-8-8V100c0-4.422,3.578-8,8-8s8,3.578,8,8v120
				C264,224.422,260.422,228,256,228z"/>
		</g>
	</g>
	<g>
		<path style="fill:#B3F4FF;" d="M384.969,289.656c-9.359-9.359-24.578-9.359-33.938,0L336,304.687c0,11.075,0,19.312,0,19.312
			l48,24l29.656-29.656L384.969,289.656z"/>
	</g>
	<g>
		<path style="fill:#C27B58;" d="M501.656,406.344l-88-88L384,348l-48-24c0,0,0-8.238,0-19.312l-9.656,9.656
			c-3.125,3.125-3.125,8.188,0,11.312l92,92c1.5,1.5,3.531,2.344,5.656,2.344h72c3.234,0,6.156-1.945,7.391-4.938
			C504.633,412.07,503.945,408.633,501.656,406.344z"/>
	</g>
	<g>
		<path style="fill:#B3F4FF;" d="M325.656,278.344l-52.687-52.687c-9.359-9.359-24.578-9.359-33.938,0l-52.687,52.687
			c-2.381,2.381-2.922,5.874-1.675,8.791C195.646,297.496,208,308,208,308h8l15.029-15.03c9.373-9.373,24.569-9.373,33.941,0
			l6.059,6.059c9.373,9.373,24.569,9.373,33.941,0L320,284L325.656,278.344z"/>
	</g>
	<g>
		<g>
			<path style="fill:#9F6459;" d="M184.118,283.394c-0.027,0.352-0.053,0.685-0.034,1.038
				C184.063,284.085,184.093,283.74,184.118,283.394z"/>
		</g>
		<g>
			<path style="fill:#9F6459;" d="M184.471,281.583c0.091-0.289,0.167-0.579,0.291-0.857
				C184.634,281.008,184.564,281.29,184.471,281.583z"/>
		</g>
		<g>
			<path style="fill:#9F6459;" d="M453.656,406.344l-128-128L320,284l-15.029,15.029c-9.373,9.373-24.569,9.373-33.941,0
				l-6.059-6.059c-9.373-9.373-24.569-9.373-33.941,0L216,308h-8c0,0-12.354-10.504-23.331-20.865
				c0.39,0.912,0.931,1.777,1.675,2.521l128,128c1.5,1.5,3.531,2.344,5.656,2.344h128c3.234,0,6.156-1.945,7.391-4.938
				C456.633,412.07,455.945,408.633,453.656,406.344z"/>
		</g>
		<g>
			<path style="fill:#9F6459;" d="M184.669,287.135c-0.116-0.272-0.138-0.565-0.223-0.846
				C184.531,286.572,184.551,286.86,184.669,287.135z"/>
		</g>
	</g>
	<g>
		<g>
			<path style="fill:#7E5C62;" d="M504,420H8c-4.422,0-8-3.578-8-8s3.578-8,8-8h496c4.422,0,8,3.578,8,8S508.422,420,504,420z"/>
		</g>
	</g>
	<g>
		<path style="fill:#53DCFF;" d="M184.969,265.656c-9.359-9.359-24.578-9.359-33.937,0L108.687,308l17.664,17.664
			c9.75,9.742,25.578,9.734,35.312-0.016c3.5-3.484,9.172-3.484,12.672,0l16.016,16.016c4.867,4.867,11.258,7.297,17.648,7.297
			c6.391,0,12.781-2.43,17.648-7.297L243.312,324L184.969,265.656z"/>
	</g>
	<g>
		<path style="fill:#7E5C62;" d="M325.656,406.344L243.312,324l-17.664,17.664c-4.867,4.867-11.258,7.297-17.648,7.297
			c-6.391,0-12.781-2.43-17.648-7.297l-16.016-16.016c-3.5-3.484-9.172-3.484-12.672,0c-9.734,9.75-25.562,9.758-35.312,0.016
			L108.687,308l-98.344,98.344c-3.125,3.125-3.125,8.188,0,11.312s8.187,3.125,11.312,0L27.312,412h281.375l5.656,5.656
			c1.562,1.562,3.609,2.344,5.656,2.344s4.094-0.781,5.656-2.344C328.781,414.531,328.781,409.469,325.656,406.344z"/>
	</g>
</g>
<g>
</g>
<g>
</g>
<g>
</g>
<g>
</g>
<g>
</g>
<g>
</g>
<g>
</g>
<g>
</g>
<g>
</g>
<g>
</g>
<g>
</g>
<g>
</g>
<g>
</g>
<g>
</g>
<g>
</g>
</svg>
