<svg xmlns="http://www.w3.org/2000/svg" width="150" height="42" viewBox="0 0 150 42"><defs><style>.cls-1 { fill: #B5C837; fill-rule: evenodd; }</style></defs><path id="Arc_Logo" data-name="Arc Logo" class="cls-1" d="M87.166 38.1v-2.867c-2.336 2.305-4.544 3.24-8.52 3.24s-6.628-.935-8.585-2.867a9.62 9.62 0 0 1-2.524-6.79c0-5.3 3.724-9.1 11.046-9.1h8.458v-2.238c0-3.988-2.02-5.92-7.006-5.92-3.535 0-5.24.81-7.006 3.054L68.8 10.688c3.03-3.49 6.186-4.548 11.488-4.548 8.773 0 13.192 3.676 13.192 10.84V38.1h-6.314zm-.126-13.956h-7.512c-3.787 0-5.744 1.682-5.744 4.548s1.83 4.486 5.87 4.486c2.46 0 4.292-.187 6-1.807.947-.933 1.39-2.43 1.39-4.67v-2.556zm32.037-10.217a5.972 5.972 0 0 0-4.8-2.118c-3.472 0-6.375 2.74-6.375 7.1V38.1h-6.438V6.513h6.312V9.94c1.64-2.243 4.923-3.8 8.52-3.8a9.974 9.974 0 0 1 7.638 2.99zm20.382 24.546c-7.196 0-14.266-4.36-14.266-16.2s7.07-16.136 14.265-16.136A13.212 13.212 0 0 1 150 10.563l-4.418 4.237c-2.02-2.18-3.6-2.99-6.123-2.99a7.252 7.252 0 0 0-5.934 2.8c-1.39 1.745-1.893 3.987-1.893 7.663s.5 5.98 1.893 7.725a7.252 7.252 0 0 0 5.933 2.8c2.524 0 4.1-.81 6.122-2.99l4.418 4.18a13.264 13.264 0 0 1-10.54 4.485zM0 42a42.653 42.653 0 0 0 26.33-9.07A42.653 42.653 0 0 0 52.663 42v-6.095A36.343 36.343 0 0 1 31 28.675a42.4 42.4 0 0 0 4.355-5.343 29.38 29.38 0 0 0 17.307 5.68v-6.09a23.18 23.18 0 0 1-14.255-4.964 23.174 23.174 0 0 1-4.655-4.744A22.542 22.542 0 0 1 29.435-.008h-6.208a22.54 22.54 0 0 1-4.317 13.22 23.166 23.166 0 0 1-4.655 4.745A23.18 23.18 0 0 1 0 22.92v6.093a29.38 29.38 0 0 0 17.307-5.68 42.41 42.41 0 0 0 4.355 5.343A36.343 36.343 0 0 1 0 35.906V42zm26.33-29.35a28.953 28.953 0 0 0 4.37 6.433 36.054 36.054 0 0 1-4.365 5.554 36.054 36.054 0 0 1-4.365-5.554 28.953 28.953 0 0 0 4.36-6.437z"/></svg>