<?xml version="1.0" encoding="utf-8"?>
<!-- Generator: Adobe Illustrator 22.1.0, SVG Export Plug-In . SVG Version: 6.00 Build 0)  -->
<svg version="1.1" id="Layer_1" xmlns="http://www.w3.org/2000/svg" xmlns:xlink="http://www.w3.org/1999/xlink" x="0px" y="0px"
	 viewBox="0 0 96.9 78.3" style="enable-background:new 0 0 96.9 78.3;" xml:space="preserve">
<style type="text/css">
	.st0{fill:#BCCD30;}
</style>
<title>arc-logo-gr</title>
<path class="st0" d="M0,78.4c17.6,0,34.6-6,48.4-16.9c13.8,11,30.9,16.9,48.5,16.9V67C82.5,67,68.5,62.2,57,53.5
	c2.9-3.1,5.6-6.5,8-10c9.2,6.9,20.4,10.6,31.9,10.7V42.8c-9.5-0.1-18.8-3.3-26.2-9.3c-3.3-2.5-6.2-5.5-8.6-8.8
	C57,17.5,54.2,8.9,54.2,0H42.7c0,8.9-2.8,17.5-7.9,24.7c-2.4,3.3-5.3,6.3-8.6,8.8c-7.4,6-16.7,9.2-26.2,9.3v11.4
	c11.5,0,22.6-3.8,31.8-10.6c2.4,3.5,5.1,6.9,8,10C28.3,62.3,14.4,67,0,67V78.4z M48.4,23.6c2.1,4.3,4.8,8.4,8,12
	c-2.3,3.7-5,7.2-8,10.4c-3-3.2-5.7-6.7-8-10.4C43.6,32,46.3,27.9,48.4,23.6z"/>
</svg>
