<?xml version="1.0" encoding="iso-8859-1"?>
<!-- Generator: Adobe Illustrator 19.0.0, SVG Export Plug-In . SVG Version: 6.00 Build 0)  -->
<svg version="1.1" id="Layer_1" xmlns="http://www.w3.org/2000/svg" xmlns:xlink="http://www.w3.org/1999/xlink" x="0px" y="0px"
	 viewBox="0 0 512.438 512.438" style="enable-background:new 0 0 512.438 512.438;" xml:space="preserve">
<g>
	<g>
		<rect x="32" y="84.219" style="fill:#00C37A;" width="448" height="336"/>
	</g>
	<g>
		<path style="fill:#7E5C62;" d="M472.219,76.219h-432c-8.82,0-16,7.176-16,16v312c0,4.418,3.578,8,8,8s8-3.582,8-8v-312h432v312
			c0,4.418,3.578,8,8,8s8-3.582,8-8v-312C488.219,83.395,481.039,76.219,472.219,76.219z"/>
	</g>
	<g>
		<path style="fill:#E6BE8A;" d="M504.438,436.219H8c-4.418,0-8-3.582-8-8v-16c0-4.418,3.582-8,8-8h496.438c4.418,0,8,3.582,8,8v16
			C512.438,432.637,508.856,436.219,504.438,436.219z"/>
	</g>
	<g>
		<path style="fill:#FFFFFF;" d="M136.219,404.219v-16c0-4.418-3.582-8-8-8h-48c-4.418,0-8,3.582-8,8v16"/>
	</g>
	<g>
		<g>
			<path style="fill:#FFFFFF;" d="M120.219,276.219c-4.422,0-8-3.582-8-8s3.578-8,8-8c13.234,0,24-10.766,24-24s-10.766-24-24-24
				s-24,10.766-24,24c0,4.418-3.578,8-8,8s-8-3.582-8-8c0-22.055,17.945-40,40-40s40,17.945,40,40S142.273,276.219,120.219,276.219z
				"/>
		</g>
	</g>
	<g>
		<g>
			<path style="fill:#FFFFFF;" d="M152.219,308.219h-64c-4.422,0-8-3.582-8-8v-8c0-17.645,14.352-32,32-32h8c4.422,0,8,3.582,8,8
				s-3.578,8-8,8h-8c-8.82,0-16,7.176-16,16h56c4.422,0,8,3.582,8,8S156.641,308.219,152.219,308.219z"/>
		</g>
	</g>
	<g>
		<g>
			<path style="fill:#FFFFFF;" d="M264.219,276.219c-4.422,0-8-3.582-8-8s3.578-8,8-8c13.234,0,24-10.766,24-24s-10.766-24-24-24
				s-24,10.766-24,24c0,4.418-3.578,8-8,8s-8-3.582-8-8c0-22.055,17.945-40,40-40s40,17.945,40,40S286.273,276.219,264.219,276.219z
				"/>
		</g>
	</g>
	<g>
		<g>
			<path style="fill:#FFFFFF;" d="M296.219,308.219h-64c-4.422,0-8-3.582-8-8v-8c0-17.645,14.352-32,32-32h8c4.422,0,8,3.582,8,8
				s-3.578,8-8,8h-8c-8.82,0-16,7.176-16,16h56c4.422,0,8,3.582,8,8S300.641,308.219,296.219,308.219z"/>
		</g>
	</g>
	<g>
		<g>
			<path style="fill:#FFFFFF;" d="M208.219,260.219h-32c-4.422,0-8-3.582-8-8s3.578-8,8-8h32c4.422,0,8,3.582,8,8
				S212.641,260.219,208.219,260.219z"/>
		</g>
	</g>
	<g>
		<g>
			<path style="fill:#FFFFFF;" d="M352.219,276.219h-32c-4.422,0-8-3.582-8-8s3.578-8,8-8h32c4.422,0,8,3.582,8,8
				S356.641,276.219,352.219,276.219z"/>
		</g>
	</g>
	<g>
		<g>
			<path style="fill:#FFFFFF;" d="M352.219,252.219h-32c-4.422,0-8-3.582-8-8s3.578-8,8-8h32c4.422,0,8,3.582,8,8
				S356.641,252.219,352.219,252.219z"/>
		</g>
	</g>
	<g>
		<g>
			<path style="fill:#FFFFFF;" d="M192.219,276.219c-4.422,0-8-3.582-8-8v-32c0-4.418,3.578-8,8-8s8,3.582,8,8v32
				C200.219,272.637,196.641,276.219,192.219,276.219z"/>
		</g>
	</g>
	<g>
		<g>
			<path style="fill:#FFFFFF;" d="M440.219,276.219h-64c-2.461,0-4.789-1.137-6.305-3.078s-2.055-4.473-1.453-6.863l16-64
				c1.07-4.285,5.406-6.906,9.695-5.82c4.289,1.07,6.898,5.414,5.82,9.703l-13.508,54.059h53.75c4.422,0,8,3.582,8,8
				S444.64,276.219,440.219,276.219z"/>
		</g>
	</g>
	<g>
		<g>
			<path style="fill:#FFFFFF;" d="M424.219,308.219c-4.422,0-8-3.582-8-8v-72c0-4.418,3.578-8,8-8s8,3.582,8,8v72
				C432.219,304.637,428.64,308.219,424.219,308.219z"/>
		</g>
	</g>
	<g>
		<path style="fill:#C9A07C;" d="M0,420.219v8c0,4.418,3.582,8,8,8h496.438c4.418,0,8-3.582,8-8v-8H0z"/>
	</g>
</g>
<g>
</g>
<g>
</g>
<g>
</g>
<g>
</g>
<g>
</g>
<g>
</g>
<g>
</g>
<g>
</g>
<g>
</g>
<g>
</g>
<g>
</g>
<g>
</g>
<g>
</g>
<g>
</g>
<g>
</g>
</svg>
