<?xml version="1.0" encoding="iso-8859-1"?>
<!-- Generator: Adobe Illustrator 18.0.0, SVG Export Plug-In . SVG Version: 6.00 Build 0)  -->
<!DOCTYPE svg PUBLIC "-//W3C//DTD SVG 1.1//EN" "http://www.w3.org/Graphics/SVG/1.1/DTD/svg11.dtd">
<svg version="1.1" id="Capa_1" xmlns="http://www.w3.org/2000/svg" xmlns:xlink="http://www.w3.org/1999/xlink" x="0px" y="0px"
	 viewBox="0 0 205.032 205.032" style="enable-background:new 0 0 205.032 205.032;" xml:space="preserve">
<g>
	<g>
		<rect x="85.783" y="154.767" style="fill:#FDCC9B;" width="29.395" height="32.922"/>
		<path style="fill:#FCBC85;" d="M85.784,158.645c0,0,12.364,7.874,29.394,6.05v-9.928H85.784V158.645z"/>
		<ellipse style="fill:#FCBC85;" cx="43.397" cy="103.717" rx="14.343" ry="16.364"/>
		<ellipse style="fill:#FCBC85;" cx="157.565" cy="103.717" rx="14.343" ry="16.364"/>
		<path style="fill:#FDCC9B;" d="M157.507,72.462c0-24.103-17.637-41.741-57.025-41.741c-39.39,0-57.026,17.637-57.026,41.741
			c0,24.104-4.115,87.597,57.026,87.597C161.622,160.058,157.507,96.566,157.507,72.462z"/>
		<g>
			<g>
				<ellipse style="fill:#3B2519;" cx="72.705" cy="99.799" rx="6.173" ry="6.761"/>
				<circle style="fill:#FFFFFF;" cx="70.014" cy="96.814" r="1.846"/>
			</g>
			<path style="fill:#D96E27;" d="M62.83,83.044c2.919,1.46,7.606-4.96,18.335,0.625c1.956,1.018,3.123-8.708-8.377-8.708
				C62.83,74.961,61.066,82.162,62.83,83.044z"/>
			<g>
				<ellipse style="fill:#3B2519;" cx="129.019" cy="99.799" rx="6.173" ry="6.761"/>
				<circle style="fill:#FFFFFF;" cx="126.327" cy="96.814" r="1.846"/>
			</g>
			<path style="fill:#D96E27;" d="M138.132,83.044c-2.919,1.46-7.607-4.96-18.335,0.625c-1.956,1.018-3.123-8.708,8.377-8.708
				C138.132,74.961,139.895,82.162,138.132,83.044z"/>
		</g>
		<path style="fill:#FCBC85;" d="M100.481,123.579c-6.1,0-9.774-4.556-9.774-2.352c0,2.205,1.764,6.394,9.774,6.394
			c8.01,0,9.773-4.189,9.773-6.394C110.255,119.023,106.58,123.579,100.481,123.579z"/>
		<path style="fill:#FCBC85;" d="M100.481,143.85c-2.11,0-3.381-1.576-3.381-0.813s0.609,2.211,3.381,2.211
			c2.77,0,3.38-1.448,3.38-2.211S102.591,143.85,100.481,143.85z"/>
		<path style="fill:#F7945E;" d="M100.481,138.233c-9.669,0-15.493-3.937-15.493-2.939c0,0.998,2.796,4.924,15.493,4.924
			c12.696,0,15.492-3.926,15.492-4.924C115.974,134.296,110.149,138.233,100.481,138.233z"/>
	</g>
	<path style="fill:#B4DEF6;" d="M100.481,167.995v37.038H29.054C29.054,190.041,66.677,167.995,100.481,167.995z"/>
	<path style="fill:#B4DEF6;" d="M100.481,167.995v37.038h71.427C171.908,190.041,134.285,167.995,100.481,167.995z"/>
	<path style="fill:#FDCC9B;" d="M85.783,169.277c0,0,4.299,5.332,14.697,5.332c10.398,0,14.697-5.332,14.697-5.332
		S99.93,163.725,85.783,169.277z"/>
	<path style="fill:#D96E27;" d="M43.396,99.799c5.064,0,9.465-15.138,9.023-24.838c-0.44-9.701,5.645-16.755,17.594-22.046
		c0,0,34.229,9.7,58.16,9.7c31.391,0,23.064,36.891,28.771,37.185c5.707,0.294,11.88-42.035,5.266-66.285
		c0,0,10.142-5.292,13.228-11.905c3.087-6.614-7.968-0.441-17.873,0c0,0,17.604-11.464,18.4-19.4
		c0.796-7.936-32.339,8.377-69.23,4.409C69.845,2.649,39.37,23.238,37.87,54.678C36.547,82.395,38.782,99.799,43.396,99.799z"/>
	<path style="fill:#80CEF3;" d="M85.783,165.643l14.697,8.965l-15.492,15.433l-11.51-17.912
		C73.478,172.13,81.007,164.721,85.783,165.643z"/>
	<path style="fill:#80CEF3;" d="M115.178,165.643l-14.697,8.965l15.493,15.433l11.51-17.912
		C127.483,172.13,119.955,164.721,115.178,165.643z"/>
	<polygon style="fill:#65C8F2;" points="100.48,174.609 100.48,205.032 102.8,176.919 	"/>
	<circle style="fill:#65C8F2;" cx="97.1" cy="183.207" r="2.278"/>
	<circle style="fill:#65C8F2;" cx="97.1" cy="201.284" r="2.278"/>
</g>
<g>
</g>
<g>
</g>
<g>
</g>
<g>
</g>
<g>
</g>
<g>
</g>
<g>
</g>
<g>
</g>
<g>
</g>
<g>
</g>
<g>
</g>
<g>
</g>
<g>
</g>
<g>
</g>
<g>
</g>
</svg>
