<?xml version="1.0" encoding="iso-8859-1"?>
<!-- Generator: Adobe Illustrator 19.0.0, SVG Export Plug-In . SVG Version: 6.00 Build 0)  -->
<svg version="1.1" id="Layer_1" xmlns="http://www.w3.org/2000/svg" xmlns:xlink="http://www.w3.org/1999/xlink" x="0px" y="0px"
	 viewBox="0 0 460 460" style="enable-background:new 0 0 460 460;" xml:space="preserve">
<rect x="40" y="83.941" style="fill:#ABCB57;" width="380" height="282.277"/>
<path style="fill:#59595A;" d="M440,366.219V63.942H20v302.277H0v29.838h460v-29.838H440z M40,83.942h380v282.277H40V83.942z"/>
<rect x="254.759" y="346.219" style="fill:#FFFFFF;" width="121.657" height="20"/>
<path style="fill:#FFFFFF;" d="M110.412,200.833c-1.384-1.537-8.15-5.382-14.685-5.382c-5.766,0-8.687,2.23-8.687,6.151
	c0,4.459,4.229,5.613,12.455,7.766c10.763,2.768,17.529,6.151,17.529,16.145c0,11.763-9.456,16.223-20.22,16.223
	c-8.149,0-16.606-2.614-22.911-7.073l4.69-9.15c1.845,1.845,10.071,6.689,18.374,6.689c5.766,0,8.765-1.999,8.765-5.613
	c0-4.844-5.613-6.228-14.146-8.534c-10.379-2.844-15.454-6.381-15.454-14.762c0-11.148,8.841-17.145,19.912-17.145
	c7.611,0,14.3,2.845,19.068,6.074L110.412,200.833z"/>
<path style="fill:#FFFFFF;" d="M148.006,186.225c9.687,0,17.144,4.844,20.528,11.917l-8.15,5.613
	c-2.537-6.151-8.073-8.15-12.686-8.15c-10.071,0-15.146,9.457-15.146,18.145c0,9.687,6.305,18.452,15.376,18.452
	c4.69,0,10.303-2.384,12.763-8.304l8.687,4.997c-3.305,8.15-13.224,12.686-21.757,12.686c-15.147,0-25.756-14.3-25.756-28.139
	C121.866,200.141,131.477,186.225,148.006,186.225z"/>
<path style="fill:#FFFFFF;" d="M222.505,186.533v54.587h-10.533v-23.296h-24.756v23.296h-10.611v-54.587h10.611v22.065h24.756
	v-22.065H222.505z"/>
<path style="fill:#FFFFFF;" d="M230.73,213.826c0-14.531,11.071-27.678,26.064-27.678c15.454,0,25.755,14.07,25.755,27.832
	c0,14.454-10.917,27.524-25.987,27.524C241.109,241.505,230.73,227.82,230.73,213.826z M256.716,232.126
	c9.765,0,15.147-9.303,15.147-18.299c0-9.456-5.844-18.221-15.223-18.221c-9.765,0-15.223,9.226-15.223,18.221
	C241.417,223.283,247.107,232.126,256.716,232.126z"/>
<path style="fill:#FFFFFF;" d="M287.621,213.826c0-14.531,11.071-27.678,26.064-27.678c15.454,0,25.755,14.07,25.755,27.832
	c0,14.454-10.917,27.524-25.987,27.524C298.001,241.505,287.621,227.82,287.621,213.826z M313.608,232.126
	c9.765,0,15.147-9.303,15.147-18.299c0-9.456-5.844-18.221-15.223-18.221c-9.765,0-15.223,9.226-15.223,18.221
	C298.308,223.283,303.998,232.126,313.608,232.126z"/>
<path style="fill:#FFFFFF;" d="M347.665,241.12v-54.587h10.611v45.284h27.831v9.303L347.665,241.12L347.665,241.12z"/>
<polygon style="opacity:0.3;fill:#5B5B5F;enable-background:new    ;" points="460,366.219 440,366.219 440,63.942 230,63.942 
	230,396.056 460,396.056 "/>
<g>
</g>
<g>
</g>
<g>
</g>
<g>
</g>
<g>
</g>
<g>
</g>
<g>
</g>
<g>
</g>
<g>
</g>
<g>
</g>
<g>
</g>
<g>
</g>
<g>
</g>
<g>
</g>
<g>
</g>
</svg>
