<?xml version="1.0" encoding="iso-8859-1"?>
<!-- Generator: Adobe Illustrator 19.0.0, SVG Export Plug-In . SVG Version: 6.00 Build 0)  -->
<svg version="1.1" id="Layer_1" xmlns="http://www.w3.org/2000/svg" xmlns:xlink="http://www.w3.org/1999/xlink" x="0px" y="0px"
	 viewBox="0 0 460 460" style="enable-background:new 0 0 460 460;" xml:space="preserve">
<path style="fill:#ABCB57;" d="M406.63,384.247H53.37c-23.952,0-43.37-19.417-43.37-43.37V119.123
	c0-23.952,19.417-43.37,43.37-43.37h353.26c23.953,0,43.37,19.417,43.37,43.37v221.754C450,364.83,430.583,384.247,406.63,384.247z"
	/>
<path style="fill:#59595A;" d="M406.63,394.247H53.37c-29.428,0-53.37-23.941-53.37-53.37V119.123
	c0-29.428,23.941-53.37,53.37-53.37h353.26c29.429,0,53.37,23.941,53.37,53.37v221.755C460,370.306,436.059,394.247,406.63,394.247z
	 M53.37,85.753c-18.4,0-33.37,14.97-33.37,33.37v221.755c0,18.4,14.97,33.37,33.37,33.37h353.26c18.4,0,33.37-14.97,33.37-33.37
	V119.123c0-18.4-14.97-33.37-33.37-33.37C406.63,85.753,53.37,85.753,53.37,85.753z"/>
<path style="fill:#FFFFFF;" d="M125.142,257.01v14.272H67.02v-83.745h57.061v14.272H83.289v20.17h35.25v13.211h-35.25v21.821h41.853
	V257.01z"/>
<path style="fill:#FFFFFF;" d="M136.811,233.42v-10.262h36.901v10.262H136.811z M136.811,254.298v-10.262h36.901v10.262H136.811z"/>
<path style="fill:#FFFFFF;" d="M284.06,271.283h-15.798v-34.677c0-9.79-3.655-14.272-9.668-14.272
	c-6.13,0-12.261,5.308-14.619,12.975v35.975h-15.798v-34.677c0-9.908-3.655-14.272-9.55-14.272c-6.13,0-12.379,5.19-14.737,12.857
	v36.093h-15.798v-61.806h14.265v11.441c4.598-8.021,12.851-12.503,22.99-12.503c10.257,0,15.798,5.779,17.448,13.093
	c4.952-8.493,12.969-13.093,22.754-13.093c15.208,0,18.509,12.385,18.509,24.298v38.568H284.06z"/>
<path style="fill:#FFFFFF;" d="M326.382,208.415c13.44,0,23.225,6.369,27.941,15.805l-15.444,4.719
	c-2.594-4.482-7.31-7.077-12.615-7.077c-9.078,0-16.152,7.549-16.152,18.519c0,10.851,7.31,18.636,16.152,18.636
	c5.659,0,10.964-3.185,12.85-7.313l15.444,4.718c-4.244,9.318-14.501,16.041-28.059,16.041c-20.042,0-32.657-14.98-32.657-32.082
	C293.843,223.159,306.222,208.415,326.382,208.415z"/>
<path style="fill:#FFFFFF;" d="M359.851,232.006c0-8.183,2.269-13.135,10.791-17.879c7.423-4.126,11.547-5.57,11.547-9.008
	c0-2.751-2.269-5.02-6.392-5.02c-4.399,0-7.354,2.613-9.623,5.295l-5.911-6.808c2.474-2.613,8.935-6.532,17.183-6.532
	c9.348,0,14.778,4.813,14.778,11.69c0,6.464-5.292,9.696-9.279,11.966c-3.23,1.788-8.042,4.401-9.691,7.977h19.726v8.321h-33.129
	V232.006z"/>
<rect x="254.759" y="354.148" style="fill:#FFFFFF;" width="121.657" height="20"/>
<path style="opacity:0.3;fill:#5B5B5F;enable-background:new    ;" d="M406.63,65.753H230v328.494h176.63
	c29.428,0,53.37-23.941,53.37-53.37V119.123C460,89.694,436.059,65.753,406.63,65.753z"/>
<g>
</g>
<g>
</g>
<g>
</g>
<g>
</g>
<g>
</g>
<g>
</g>
<g>
</g>
<g>
</g>
<g>
</g>
<g>
</g>
<g>
</g>
<g>
</g>
<g>
</g>
<g>
</g>
<g>
</g>
</svg>
