<?xml version="1.0" encoding="iso-8859-1"?>
<!-- Generator: Adobe Illustrator 19.0.0, SVG Export Plug-In . SVG Version: 6.00 Build 0)  -->
<svg version="1.1" id="Layer_1" xmlns="http://www.w3.org/2000/svg" xmlns:xlink="http://www.w3.org/1999/xlink" x="0px" y="0px"
	 viewBox="0 0 512 512" style="enable-background:new 0 0 512 512;" xml:space="preserve">
<g>
	<g>
		<path style="fill:#AEEFFF;" d="M438.953,437.585L304,232.828V32h-96v200.828L73.046,437.585
			C52.012,469.499,74.901,512,113.124,512h285.751C437.098,512,459.988,469.499,438.953,437.585z"/>
	</g>
	<g>
		<path style="fill:#4CD7FF;" d="M255.781,32H208v200.828L73.046,437.585C52.012,469.499,74.901,512,113.124,512H255.78V32H255.781z
			"/>
	</g>
	<g>
		<path style="fill:#E3001E;" d="M418.913,450.793l-57.469-87.195c-1.477-2.246-3.992-3.598-6.68-3.598h-197.53
			c-2.687,0-5.203,1.352-6.68,3.598l-57.469,87.191c-4.953,7.508-5.359,16.703-1.094,24.582C96.234,483.277,104.14,488,113.124,488
			h285.75c8.984,0,16.891-4.723,21.125-12.609C424.273,467.492,423.867,458.297,418.913,450.793z"/>
	</g>
	<g>
		<path style="fill:#FF4F19;" d="M361.445,363.598c-1.477-2.246-3.992-3.598-6.68-3.598h-98.984v128h143.094
			c8.984,0,16.891-4.723,21.125-12.609c4.273-7.898,3.867-17.094-1.086-24.598L361.445,363.598z"/>
	</g>
	<g>
		<path style="fill:#4BB9EC;" d="M304,32h-96c-8.837,0-16-7.163-16-16l0,0c0-8.837,7.163-16,16-16h96c8.837,0,16,7.163,16,16l0,0
			C320,24.837,312.836,32,304,32z"/>
	</g>
	<g>
		<circle style="fill:#FF4F19;" cx="200" cy="416" r="16"/>
	</g>
	<g>
		<circle style="fill:#E3001E;" cx="328" cy="432" r="16"/>
	</g>
	<g>
		<g>
			<path style="fill:#E3001E;" d="M280.023,416c-2.164,0-4.164-0.883-5.688-2.32c-1.516-1.52-2.313-3.602-2.313-5.68
				c0-2.082,0.797-4.16,2.313-5.68c2.961-2.961,8.32-2.961,11.281,0c1.523,1.52,2.406,3.52,2.406,5.68s-0.883,4.16-2.406,5.68
				C284.179,415.117,282.101,416,280.023,416z"/>
		</g>
	</g>
	<g>
		<g>
			<path style="fill:#AEEFFF;" d="M231.781,328c-2.164,0-4.164-0.883-5.688-2.32c-1.516-1.52-2.313-3.602-2.313-5.68
				c0-2.082,0.797-4.16,2.313-5.68c2.961-2.961,8.242-2.961,11.281,0c1.523,1.52,2.406,3.598,2.406,5.68
				c0,2.078-0.883,4.16-2.32,5.68C235.937,327.117,233.859,328,231.781,328z"/>
		</g>
	</g>
	<g>
		<g>
			<path style="fill:#4CD7FF;" d="M279.781,264c-2.164,0-4.164-0.883-5.688-2.32c-1.516-1.52-2.313-3.602-2.313-5.68
				c0-2.082,0.797-4.16,2.313-5.68c2.961-2.961,8.242-2.961,11.281,0c1.523,1.52,2.406,3.598,2.406,5.68
				c0,2.078-0.883,4.16-2.406,5.68C283.937,263.117,281.859,264,279.781,264z"/>
		</g>
	</g>
	<g>
		<g>
			<path style="fill:#AEEFFF;" d="M231.781,208c-2.164,0-4.242-0.883-5.688-2.402c-1.516-1.438-2.313-3.52-2.313-5.598
				c0-2.082,0.797-4.16,2.313-5.68c2.961-2.961,8.32-2.961,11.281,0c1.523,1.52,2.406,3.598,2.406,5.68
				c0,2.078-0.883,4.16-2.406,5.68C235.937,207.117,233.859,208,231.781,208z"/>
		</g>
	</g>
	<g>
		<g>
			<path style="fill:#FF4F19;" d="M231.781,463.9c-2.164,0-4.164-0.883-5.688-2.32c-1.516-1.52-2.313-3.602-2.313-5.68
				c0-2.082,0.797-4.16,2.313-5.68c2.961-2.961,8.32-2.961,11.281,0c1.523,1.52,2.406,3.598,2.406,5.68
				c0,2.078-0.883,4.16-2.406,5.68C235.937,463.017,233.859,463.9,231.781,463.9z"/>
		</g>
	</g>
	<g>
		<g>
			<path style="fill:#FF4F19;" d="M152.023,456c-2.164,0-4.242-0.883-5.688-2.32c-1.516-1.52-2.313-3.602-2.313-5.68
				c0-2.082,0.797-4.16,2.313-5.68c2.961-2.961,8.32-2.961,11.281,0c1.523,1.52,2.406,3.598,2.406,5.68
				c0,2.078-0.883,4.16-2.406,5.68C156.179,455.117,154.101,456,152.023,456z"/>
		</g>
	</g>
</g>
<g>
</g>
<g>
</g>
<g>
</g>
<g>
</g>
<g>
</g>
<g>
</g>
<g>
</g>
<g>
</g>
<g>
</g>
<g>
</g>
<g>
</g>
<g>
</g>
<g>
</g>
<g>
</g>
<g>
</g>
</svg>
