<?xml version="1.0" encoding="iso-8859-1"?>
<!-- Generator: Adobe Illustrator 19.0.0, SVG Export Plug-In . SVG Version: 6.00 Build 0)  -->
<svg version="1.1" id="Layer_1" xmlns="http://www.w3.org/2000/svg" xmlns:xlink="http://www.w3.org/1999/xlink" x="0px" y="0px"
	 viewBox="0 0 460 460" style="enable-background:new 0 0 460 460;" xml:space="preserve">
<path style="fill:#C8523B;" d="M453.338,83.637L376.363,6.662c-8.882-8.882-23.284-8.883-32.166,0L6.662,344.197
	c-8.882,8.882-8.882,23.284,0,32.166l76.975,76.975c8.882,8.882,23.284,8.882,32.166,0l337.535-337.535
	C462.221,106.921,462.221,92.519,453.338,83.637z M377.023,82.977c-6.327-6.327-6.327-16.586,0-22.913s16.586-6.327,22.913,0
	s6.327,16.586,0,22.913S383.351,89.304,377.023,82.977z"/>
<rect x="376.672" y="146.272" transform="matrix(-0.7071 -0.7071 0.7071 -0.7071 565.1788 536.6478)" style="fill:#59595A;" width="34.121" height="10"/>
<rect x="346.94" y="176.01" transform="matrix(-0.7071 -0.7071 0.7071 -0.7071 493.394 566.3903)" style="fill:#59595A;" width="34.121" height="10"/>
<rect x="317.201" y="205.75" transform="matrix(-0.7071 -0.7071 0.7071 -0.7071 421.5974 596.1321)" style="fill:#59595A;" width="34.121" height="10"/>
<rect x="287.452" y="235.494" transform="matrix(-0.7071 -0.7071 0.7071 -0.7071 349.7807 625.8713)" style="fill:#59595A;" width="34.122" height="10"/>
<rect x="257.715" y="265.236" transform="matrix(-0.7071 -0.7071 0.7071 -0.7071 277.9854 655.6163)" style="fill:#59595A;" width="34.121" height="10"/>
<rect x="227.973" y="294.978" transform="matrix(-0.7071 -0.7071 0.7071 -0.7071 206.1822 685.3584)" style="fill:#59595A;" width="34.121" height="10"/>
<rect x="198.228" y="324.719" transform="matrix(-0.7071 -0.7071 0.7071 -0.7071 134.3738 715.0971)" style="fill:#59595A;" width="34.122" height="10"/>
<rect x="168.49" y="354.461" transform="matrix(-0.7071 -0.7071 0.7071 -0.7071 62.577 744.8422)" style="fill:#59595A;" width="34.121" height="10"/>
<rect x="138.749" y="384.202" transform="matrix(-0.7071 -0.7071 0.7071 -0.7071 -9.2248 774.5837)" style="fill:#59595A;" width="34.121" height="10"/>
<rect x="109.012" y="413.947" transform="matrix(-0.7071 -0.7071 0.7071 -0.7071 -81.0209 804.3332)" style="fill:#59595A;" width="34.121" height="10"/>
<path style="opacity:0.3;fill:#5B5B5F;enable-background:new    ;" d="M453.338,83.637L414.851,45.15l-14.914,14.914l0,0
	c6.327,6.327,6.327,16.586,0,22.913s-16.586,6.327-22.913,0l0,0L45.149,414.851l38.487,38.487c8.882,8.882,23.284,8.883,32.166,0
	l337.535-337.535C462.221,106.921,462.221,92.519,453.338,83.637z"/>
<rect x="10.466" y="171.495" transform="matrix(0.7071 0.7071 -0.7071 0.7071 243.833 -100.9972)" style="fill:#ABCB57;" width="466.73" height="144.679"/>
<polygon style="fill:#E0D492;" points="129.969,27.665 0,0 27.668,129.967 "/>
<polygon style="fill:#ABCB57;" points="0,0 42.565,9.06 9.061,42.564 "/>
<polygon style="opacity:0.3;fill:#5B5B5F;enable-background:new    ;" points="27.668,129.967 0,0 408.848,408.848 357.696,460 "/>
<g>
</g>
<g>
</g>
<g>
</g>
<g>
</g>
<g>
</g>
<g>
</g>
<g>
</g>
<g>
</g>
<g>
</g>
<g>
</g>
<g>
</g>
<g>
</g>
<g>
</g>
<g>
</g>
<g>
</g>
</svg>
