<?xml version="1.0" encoding="iso-8859-1"?>
<!-- Generator: Adobe Illustrator 19.0.0, SVG Export Plug-In . SVG Version: 6.00 Build 0)  -->
<svg version="1.1" id="Layer_1" xmlns="http://www.w3.org/2000/svg" xmlns:xlink="http://www.w3.org/1999/xlink" x="0px" y="0px"
	 viewBox="0 0 460.008 460.008" style="enable-background:new 0 0 460.008 460.008;" xml:space="preserve">
<polygon style="fill:#B9BBBC;" points="380.358,176.064 460.004,96.418 363.586,0 283.947,79.638 "/>
<rect x="242.576" y="119.141" transform="matrix(-0.7071 -0.7071 0.7071 -0.7071 467.5883 456.8631)" style="fill:#444242;" width="171.675" height="24.899"/>
<path style="fill:#59595A;" d="M340.542,154.408c32.782,32.797,59.369,59.377,59.369,59.377L172.058,441.629
	c-27.719,27.728-76.772,23.614-109.562-9.176l-34.939-34.954C-5.23,364.71-9.345,315.65,18.382,287.938L246.219,60.093
	c0,0,26.58,26.58,59.376,59.361L340.542,154.408z"/>
<polygon style="fill:#59595A;" points="369.818,60.078 345.874,36.11 362.499,19.469 386.451,43.445 "/>
<polygon style="fill:#59595A;" points="426.59,116.827 402.653,92.897 419.279,76.272 443.216,100.209 "/>
<polygon style="fill:#FFFFFF;" points="340.75,126.325 333.68,119.253 344.887,108.046 332.66,95.819 362.632,65.848 
	374.858,78.074 408.26,44.673 415.33,51.745 374.858,92.217 362.632,79.99 346.803,95.819 359.029,108.046 "/>
<path style="opacity:0.3;fill:#5B5B5F;enable-background:new    ;" d="M383.763,197.638l14.151-14.151l-12.49-12.49l74.579-74.58
	l-48.209-48.209L45.028,414.976l17.469,17.476c32.789,32.789,81.843,36.904,109.562,9.176l227.853-227.844
	C399.911,213.785,393.768,207.643,383.763,197.638z"/>
<g>
</g>
<g>
</g>
<g>
</g>
<g>
</g>
<g>
</g>
<g>
</g>
<g>
</g>
<g>
</g>
<g>
</g>
<g>
</g>
<g>
</g>
<g>
</g>
<g>
</g>
<g>
</g>
<g>
</g>
</svg>
