<?xml version="1.0" encoding="utf-8"?>
<!-- Generator: Adobe Illustrator 16.0.0, SVG Export Plug-In . SVG Version: 6.00 Build 0)  -->
<!DOCTYPE svg PUBLIC "-//W3C//DTD SVG 1.1//EN" "http://www.w3.org/Graphics/SVG/1.1/DTD/svg11.dtd">
<svg version="1.1" id="Layer_1" xmlns="http://www.w3.org/2000/svg" xmlns:xlink="http://www.w3.org/1999/xlink" x="0px" y="0px"
	 width="75px" height="75px" viewBox="0 0 75 75" enable-background="new 0 0 75 75" xml:space="preserve">
<g>
	<polygon fill="#DA4026" points="41.521,61.309 65.182,48.781 67.715,32.634 	"/>
	<polygon fill="#DA4026" points="67.281,30.842 59.279,20.865 41.898,57.705 41.898,58.559 	"/>
	<polygon fill="#DA4026" points="57.654,20.896 47.423,12.932 41.898,53.357 41.898,54.223 	"/>
	<g>
		<polygon fill="#FFFFFF" points="17.574,33.575 17.663,33.572 21.457,48.021 24.252,48.2 28.334,33.016 28.424,33.014 
			28.424,48.469 32.133,48.706 32.133,27.534 27.233,27.877 23.46,42.141 22.99,42.139 19.395,28.357 14.753,28.657 14.753,47.59 
			17.574,47.771 		"/>
		<path fill="#DA4026" d="M7.285,15.001v44.997l34.367,6.059V8.944L7.285,15.001z M32.133,48.706l-3.709-0.237V33.014l-0.09,0.002
			L24.252,48.2l-2.795-0.179l-3.794-14.45l-0.089,0.003v14.196l-2.821-0.182V28.657l4.642-0.3l3.595,13.782l0.47,0.002l3.773-14.264
			l4.9-0.343V48.706z"/>
	</g>
</g>
</svg>
