<?xml version="1.0" encoding="utf-8"?><!-- Generator: Adobe Illustrator 16.0.0, SVG Export Plug-In . SVG Version: 6.00 Build 0) --><!DOCTYPE svg PUBLIC "-//W3C//DTD SVG 1.1//EN" "http://www.w3.org/Graphics/SVG/1.1/DTD/svg11.dtd"><svg version="1.1" id="Layer_1" xmlns="http://www.w3.org/2000/svg" xmlns:xlink="http://www.w3.org/1999/xlink" x="0px" y="0px" width="41px" height="41px" viewBox="2 2 41 41" enable-background="new 2 2 41 41" xml:space="preserve"><path fill="#FFFFFF" d="M17,38c-1.103,0-2-0.896-2-2V9c0-1.103,0.897-2,2-2h19c1.104,0,2,0.897,2,2h2c1.104,0,2,0.897,2,2v5	c0,1.103-0.896,2-2,2l0,0c1.104,0,2,0.897,2,2v5c0,1.104-0.896,2-2,2l0,0c1.104,0,2,0.896,2,2v5c0,1.104-0.896,2-2,2h-2	c0,1.104-0.896,2-2,2H17z"/><path fill="#80397B" d="M43,11c0-1.654-1.346-3-3-3h-1.171C38.416,6.836,37.305,6,36,6H17c-1.654,0-3,1.346-3,3v27	c0,1.654,1.346,3,3,3h19c1.305,0,2.416-0.836,2.829-2H40c1.654,0,3-1.346,3-3v-5c0-0.768-0.29-1.469-0.766-2	C42.71,26.469,43,25.768,43,25v-5c0-0.768-0.29-1.469-0.766-2C42.71,17.469,43,16.768,43,16V11z M41,34c0,0.552-0.448,1-1,1h-1v-7h1	c0.552,0,1,0.448,1,1V34z M41,25c0,0.552-0.448,1-1,1h-1v-7h1c0.552,0,1,0.448,1,1V25z M41,16c0,0.552-0.448,1-1,1h-3v19	c0,0.552-0.448,1-1,1H17c-0.552,0-1-0.448-1-1V9c0-0.552,0.448-1,1-1h19c0.552,0,1,0.448,1,1v1h3c0.552,0,1,0.448,1,1V16z"/><g><path fill="#80397B" d="M23,11h10v2H23V11z M23,17h10v-2H23V17z M23,21h10v-2H23V21z M23,25h10v-2H23V25z M23,29h10v-2H23V29z M23,33h10v-2H23V33z"/><path fill="#80397B" d="M23,11h10v2H23V11z M23,17h10v-2H23V17z M23,21h10v-2H23V21z M23,25h10v-2H23V25z M23,29h10v-2H23V29z M23,33h10v-2H23V33z"/></g><g><g><path fill="#80397B" d="M26,2L2,7v31l24,5V2z"/></g><g opacity="0.05"><linearGradient id="SVGID_1_" gradientUnits="userSpaceOnUse" x1="43.5" y1="-141.5" x2="67.5" y2="-141.5" gradientTransform="matrix(1 0 0 -1 -41.5 -119)"><stop offset="0" style="stop-color:#FFFFFF"/><stop offset="1" style="stop-color:#000000"/></linearGradient><path fill="url(#SVGID_1_)" d="M26,2L2,7v31l24,5V2z"/></g></g><path fill="#FFFFFF" d="M17.25,14v11.75C17.178,25.598,11,14.25,11,14.25L8,14.5v15.743l3,0.167c0,0,0.012-11.806,0-11.96	l5.908,12.346L20.5,31V13.5L17.25,14z"/></svg>