<?xml version="1.0" encoding="iso-8859-1"?>
<!-- Generator: Adobe Illustrator 19.1.0, SVG Export Plug-In . SVG Version: 6.00 Build 0)  -->
<svg version="1.1" id="Capa_1" xmlns="http://www.w3.org/2000/svg" xmlns:xlink="http://www.w3.org/1999/xlink" x="0px" y="0px"
	 viewBox="0 0 512 512" style="enable-background:new 0 0 512 512;" xml:space="preserve">
<g>
	<g>
		<g>
			<path style="fill:#B9BBC1;" d="M256,448c-4.422,0-8-3.582-8-8V264c0-4.418,3.578-8,8-8s8,3.582,8,8v176
				C264,444.418,260.422,448,256,448z"/>
		</g>
	</g>
	<g>
		<path style="fill:#8B8996;" d="M328,432H184c-13.234,0-24,10.766-24,24v32c0,13.234,10.766,24,24,24h144c13.234,0,24-10.766,24-24
			v-32C352,442.765,341.234,432,328,432z"/>
	</g>
	<g>
		<g>
			<path style="fill:#B9BBC1;" d="M123.312,372.687c-2.047,0-4.094-0.781-5.656-2.344c-3.125-3.125-3.125-8.188,0-11.312
				l100.687-100.687c3.125-3.125,8.188-3.125,11.312,0s3.125,8.188,0,11.312L128.969,370.344
				C127.406,371.906,125.359,372.687,123.312,372.687z"/>
		</g>
	</g>
	<g>
		<g>
			<path style="fill:#B9BBC1;" d="M388.687,372.687c-2.047,0-4.094-0.781-5.656-2.344l-92.687-92.687
				c-3.125-3.125-3.125-8.187,0-11.312s8.188-3.125,11.312,0l92.687,92.687c3.125,3.125,3.125,8.188,0,11.312
				C392.781,371.906,390.734,372.687,388.687,372.687z"/>
		</g>
	</g>
	<g>
		<path style="fill:#D8DCE1;" d="M112,352H24c-13.234,0-24,10.766-24,24v32c0,13.234,10.766,24,24,24h88c13.234,0,24-10.766,24-24
			v-32C136,362.765,125.234,352,112,352z"/>
	</g>
	<g>
		<g>
			<path style="fill:#B9BBC1;" d="M216,480h-24c-4.422,0-8-3.582-8-8s3.578-8,8-8h24c4.422,0,8,3.582,8,8S220.422,480,216,480z"/>
		</g>
	</g>
	<g>
		<g>
			<path style="fill:#B9BBC1;" d="M320,480h-72c-4.422,0-8-3.582-8-8s3.578-8,8-8h72c4.422,0,8,3.582,8,8S324.422,480,320,480z"/>
		</g>
	</g>
	<g>
		<g>
			<path style="fill:#B9BBC1;" d="M104,400H88c-4.422,0-8-3.582-8-8s3.578-8,8-8h16c4.422,0,8,3.582,8,8S108.422,400,104,400z"/>
		</g>
	</g>
	<g>
		<g>
			<path style="fill:#B9BBC1;" d="M64,400H32c-4.422,0-8-3.582-8-8s3.578-8,8-8h32c4.422,0,8,3.582,8,8S68.422,400,64,400z"/>
		</g>
	</g>
	<g>
		<g>
			<path style="fill:#FDC88E;" d="M256,192c-18.629,0-35.531-7.994-48.002-20.914c-0.009,7.743-0.291,18.92-2.344,27.074
				c1.347,0.823,2.392,2.174,2.596,3.856C210.911,223.672,231.437,240,256,240c24.557,0,45.083-16.331,47.75-37.984
				c0.207-1.684,1.229-3.033,2.597-3.854c-2.053-8.155-2.335-19.333-2.345-27.076C291.531,184.006,274.629,192,256,192z"/>
		</g>
		<g>
			<path style="fill:#FFB980;" d="M302.96,172.069C290.594,184.387,274.132,192,256,192c-18.629,0-35.531-7.994-48.002-20.914
				c-0.009,7.743-0.291,18.92-2.344,27.074c1.347,0.823,2.392,2.174,2.596,3.856c1.176,9.573,5.852,18.096,12.815,24.636
				C253.177,222.129,289.624,190.421,302.96,172.069z"/>
		</g>
		<g>
			<path style="fill:#FF4F19;" d="M353.344,203.919c-0.214-0.06-0.427-0.107-0.646-0.138l-42.573-6.388
				c-0.26-0.039-0.818-0.06-1.083-0.06c-2.693,0-4.964,2.008-5.292,4.682C301.083,223.669,280.557,240,256,240
				c-24.562,0-45.089-16.328-47.75-37.984c-0.333-2.753-2.812-4.823-5.427-4.68c-0.312-0.018-0.62,0.008-0.948,0.057l-42.573,6.388
				c-0.219,0.031-0.432,0.078-0.646,0.138C138.531,209.555,128,229.357,128,246.005v20.661c0,8.797,7.833,15.953,17.464,15.953
				h221.073c9.63,0,17.464-7.156,17.464-15.953v-20.661C384,229.357,373.469,209.555,353.344,203.919z"/>
		</g>
		<g>
			<path style="fill:#FFE1B2;" d="M304,58.667h-90.667c-14.703,0-26.667,11.964-26.667,26.667v32
				C186.667,158.505,217.771,192,256,192s69.333-33.495,69.333-74.667V80C325.333,68.237,315.765,58.667,304,58.667z"/>
		</g>
		<g>
			<path style="fill:#7E5449;" d="M293.333,0H224c-10.031,0-18.464,6.958-20.734,16.299c-18.359,2.333-32.599,18.052-32.599,37.034
				V80c0,13.745,5.835,26.567,16,35.68V85.333c0-14.703,11.964-26.667,26.667-26.667H304c11.766,0,21.333,9.57,21.333,21.333v35.674
				c10.167-9.111,16-21.933,16-35.674V48C341.333,21.534,319.802,0,293.333,0z"/>
		</g>
	</g>
	<g>
		<path style="fill:#D8DCE1;" d="M400,352h88c13.234,0,24,10.766,24,24v32c0,13.234-10.766,24-24,24h-88c-13.234,0-24-10.766-24-24
			v-32C376,362.765,386.765,352,400,352z"/>
	</g>
	<g>
		<g>
			<path style="fill:#B9BBC1;" d="M408,400h16c4.422,0,8-3.582,8-8s-3.578-8-8-8h-16c-4.422,0-8,3.582-8,8S403.578,400,408,400z"/>
		</g>
	</g>
	<g>
		<g>
			<path style="fill:#B9BBC1;" d="M448,400h32c4.422,0,8-3.582,8-8s-3.578-8-8-8h-32c-4.422,0-8,3.582-8,8S443.578,400,448,400z"/>
		</g>
	</g>
</g>
<g>
</g>
<g>
</g>
<g>
</g>
<g>
</g>
<g>
</g>
<g>
</g>
<g>
</g>
<g>
</g>
<g>
</g>
<g>
</g>
<g>
</g>
<g>
</g>
<g>
</g>
<g>
</g>
<g>
</g>
</svg>
