<?xml version="1.0" encoding="iso-8859-1"?>
<!-- Generator: Adobe Illustrator 19.0.0, SVG Export Plug-In . SVG Version: 6.00 Build 0)  -->
<svg version="1.1" id="Layer_1" xmlns="http://www.w3.org/2000/svg" xmlns:xlink="http://www.w3.org/1999/xlink" x="0px" y="0px"
	 viewBox="0 0 460 460" style="enable-background:new 0 0 460 460;" xml:space="preserve">
<rect x="207.747" y="70.563" transform="matrix(-0.6431 -0.7658 0.7658 -0.6431 405.6015 340.1652)" style="fill:#D8D9DD;" width="148.647" height="10.001"/>
<rect x="170.235" y="1.234" transform="matrix(-0.7658 -0.6431 0.6431 -0.7658 260.8385 246.1102)" style="fill:#D8D9DD;" width="10.001" height="148.647"/>
<rect x="25.322" y="142.513" style="fill:#EDEEF0;" width="409.349" height="302.359"/>
<polygon style="fill:#C8523B;" points="109.647,286.96 103.974,278.726 158.901,240.874 201.205,261.053 270.07,208.794 
	319.923,235.485 370.68,196.053 376.814,203.949 320.928,247.366 271.006,220.638 202.398,272.701 159.815,252.39 "/>
<rect x="109.05" y="317.727" style="fill:#E5C400;" width="17.768" height="52.722"/>
<rect x="137.775" y="301.482" style="fill:#E5C400;" width="17.753" height="68.968"/>
<rect x="166.47" y="341.853" style="fill:#E5C400;" width="17.761" height="28.597"/>
<rect x="195.18" y="348.809" style="fill:#E5C400;" width="17.754" height="21.641"/>
<rect x="223.882" y="317.727" style="fill:#E5C400;" width="17.746" height="52.722"/>
<rect x="252.592" y="307.059" style="fill:#E5C400;" width="17.753" height="63.391"/>
<rect x="281.301" y="331.17" style="fill:#E5C400;" width="17.753" height="39.28"/>
<rect x="309.996" y="324.214" style="fill:#E5C400;" width="17.761" height="46.236"/>
<rect x="338.713" y="329.321" style="fill:#E5C400;" width="17.754" height="41.129"/>
<rect x="367.423" y="310.302" style="fill:#E5C400;" width="17.753" height="60.148"/>
<path style="fill:#A84338;" d="M100.864,282.842c0-3.274,2.659-5.942,5.95-5.942c3.283,0,5.942,2.668,5.942,5.942
	c0,3.291-2.659,5.943-5.942,5.943C103.524,288.784,100.864,286.133,100.864,282.842z"/>
<path style="fill:#A84338;" d="M367.801,200.001c0-3.274,2.659-5.942,5.951-5.942c3.283,0,5.942,2.668,5.942,5.942
	c0,3.291-2.659,5.943-5.942,5.943C370.46,205.943,367.801,203.292,367.801,200.001z"/>
<path style="fill:#A84338;" d="M314.48,241.421c0-3.274,2.659-5.942,5.951-5.942c3.283,0,5.942,2.668,5.942,5.942
	c0,3.291-2.659,5.943-5.942,5.943C317.139,247.364,314.48,244.713,314.48,241.421z"/>
<path style="fill:#A84338;" d="M264.592,214.716c0-3.274,2.659-5.942,5.951-5.942c3.283,0,5.942,2.668,5.942,5.942
	c0,3.291-2.659,5.943-5.942,5.943C267.251,220.658,264.592,218.007,264.592,214.716z"/>
<path style="fill:#A84338;" d="M195.856,266.823c0-3.274,2.659-5.942,5.951-5.942c3.283,0,5.942,2.668,5.942,5.942
	c0,3.291-2.659,5.943-5.942,5.943C198.515,272.766,195.856,270.115,195.856,266.823z"/>
<path style="fill:#A84338;" d="M153.412,246.631c0-3.274,2.659-5.942,5.951-5.942c3.283,0,5.942,2.668,5.942,5.942
	c0,3.291-2.659,5.943-5.942,5.943C156.071,252.573,153.412,249.922,153.412,246.631z"/>
<rect x="2.068" y="123.057" style="fill:#59595A;" width="455.865" height="19.82"/>
<rect x="2.068" y="440.18" style="fill:#59595A;" width="455.865" height="19.82"/>
<path style="fill:#59595A;" d="M228.651,23.888c-6.586,0-11.943-5.358-11.943-11.944S222.065,0,228.651,0
	s11.944,5.357,11.944,11.943S235.237,23.888,228.651,23.888z M228.651,7c-2.726,0-4.943,2.218-4.943,4.943
	c0,2.727,2.218,4.944,4.943,4.944c2.727,0,4.944-2.218,4.944-4.944C233.596,9.218,231.378,7,228.651,7z"/>
<polygon style="fill:#D8D9DD;" points="388.147,384.052 90.799,384.052 90.799,184.385 80.799,184.385 80.799,384.052 
	71.846,384.052 71.846,394.052 80.799,394.052 80.799,403.016 90.799,403.016 90.799,394.052 388.147,394.052 "/>
<g>
</g>
<g>
</g>
<g>
</g>
<g>
</g>
<g>
</g>
<g>
</g>
<g>
</g>
<g>
</g>
<g>
</g>
<g>
</g>
<g>
</g>
<g>
</g>
<g>
</g>
<g>
</g>
<g>
</g>
</svg>
