<?xml version="1.0" encoding="iso-8859-1"?>
<!-- Generator: Adobe Illustrator 19.1.0, SVG Export Plug-In . SVG Version: 6.00 Build 0)  -->
<svg version="1.1" id="Capa_1" xmlns="http://www.w3.org/2000/svg" xmlns:xlink="http://www.w3.org/1999/xlink" x="0px" y="0px"
	 viewBox="0 0 512 512" style="enable-background:new 0 0 512 512;" xml:space="preserve">
<g>
	<g>
		<path style="fill:#7E5C62;" d="M184,98.664V79.109C184,66.367,194.367,56,207.109,56h97.781C317.633,56,328,66.367,328,79.109
			v19.555h32V79.109C360,48.719,335.277,24,304.89,24h-97.781C176.723,24,152,48.719,152,79.109v19.555H184z"/>
	</g>
	<g>
		<path style="fill:#9F6459;" d="M472,96H40c-22.055,0-40,17.945-40,40v312c0,22.055,17.945,40,40,40h432c22.055,0,40-17.945,40-40
			V136C512,113.945,494.054,96,472,96z"/>
	</g>
	<g>
		<path style="fill:#7E5C62;" d="M488,336H24c-13.234,0-24-10.766-24-24v136c0,22.055,17.945,40,40,40h432c22.055,0,40-17.945,40-40
			V312C512,325.234,501.234,336,488,336z"/>
	</g>
	<g>
		<path style="fill:#FF9600;" d="M104,400L104,400c-8.837,0-16-7.163-16-16v-80c0-8.837,7.163-16,16-16h0c8.837,0,16,7.163,16,16v80
			C120,392.836,112.837,400,104,400z"/>
	</g>
	<g>
		<path style="fill:#FFD200;" d="M104,360L104,360c-8.837,0-16-7.163-16-16v-40c0-8.837,7.163-16,16-16h0c8.837,0,16,7.163,16,16v40
			C120,352.836,112.837,360,104,360z"/>
	</g>
	<g>
		<path style="fill:#FF9600;" d="M400,400L400,400c-8.837,0-16-7.163-16-16v-80c0-8.837,7.163-16,16-16h0c8.837,0,16,7.163,16,16v80
			C416,392.836,408.836,400,400,400z"/>
	</g>
	<g>
		<path style="fill:#FFD200;" d="M400,360L400,360c-8.837,0-16-7.163-16-16v-40c0-8.837,7.163-16,16-16h0c8.837,0,16,7.163,16,16v40
			C416,352.836,408.836,360,400,360z"/>
	</g>
	<g>
		<path style="fill:#FFD200;" d="M304,312h-96c-4.418,0-8-3.582-8-8l0,0c0-4.418,3.582-8,8-8h96c4.418,0,8,3.582,8,8l0,0
			C312,308.418,308.418,312,304,312z"/>
	</g>
</g>
<g>
</g>
<g>
</g>
<g>
</g>
<g>
</g>
<g>
</g>
<g>
</g>
<g>
</g>
<g>
</g>
<g>
</g>
<g>
</g>
<g>
</g>
<g>
</g>
<g>
</g>
<g>
</g>
<g>
</g>
</svg>
